<svg width="44" height="35" viewBox="0 0 44 35" fill="none" xmlns="http://www.w3.org/2000/svg">
<path d="M13.2392 26.6238H31.9875C32.7402 26.6238 33.4066 26.0389 33.4066 25.2014C33.4066 24.3669 32.7402 23.7878 31.9875 23.7878H13.5971C12.8124 23.7878 12.3299 23.2305 12.2082 22.393L9.62781 4.69423C9.44357 3.30922 8.87959 2.60864 7.09483 2.60864H1.5724C0.771673 2.60864 0.0849609 3.30277 0.0849609 4.1122C0.0849609 4.93194 0.771673 5.62896 1.5724 5.62896H6.64776L9.1434 22.7209C9.499 25.1354 10.788 26.6238 13.2392 26.6238ZM8.99232 9.31637H25.0378C24.9109 8.41321 24.9534 7.35416 25.1037 6.46419H8.99232V9.31637ZM10.4208 20.7252H32.1066C33.6916 20.7252 34.7534 20.0919 35.3913 18.8605C33.7339 18.7967 32.2032 18.3085 30.8882 17.4901C30.6698 17.7542 30.3956 17.8729 30.0056 17.8729L10.4208 17.8863V20.7252ZM14.5522 34.6741C16.1031 34.6741 17.3409 33.4466 17.3409 31.8824C17.3409 30.3373 16.1031 29.0937 14.5522 29.0937C12.9938 29.0937 11.7473 30.3373 11.7473 31.8824C11.7473 33.4466 12.9938 34.6741 14.5522 34.6741ZM29.4451 34.6741C31.0063 34.6741 32.2471 33.4466 32.2471 31.8824C32.2471 30.3373 31.0063 29.0937 29.4451 29.0937C27.9 29.0937 26.6431 30.3373 26.6431 31.8824C26.6431 33.4466 27.9 34.6741 29.4451 34.6741Z" fill="#002845"/>
<path d="M35.5412 16.5772C40.0368 16.5772 43.8299 12.818 43.8299 8.28571C43.8299 3.75054 40.0764 0 35.5412 0C30.9899 0 27.2527 3.75054 27.2527 8.28571C27.2527 12.8444 30.9899 16.5772 35.5412 16.5772Z" fill="#002845"/>
<path d="M35.5411 13.5507C34.8786 13.5507 34.4325 13.1075 34.4325 12.4478V9.39433H31.3847C30.728 9.39433 30.2951 8.96144 30.2923 8.28857C30.2892 7.62601 30.7221 7.196 31.3847 7.196H34.4325V4.15118C34.4325 3.49442 34.8786 3.04832 35.5411 3.04542C36.2008 3.04252 36.6337 3.48573 36.6337 4.15118V7.196H39.6843C40.3411 7.196 40.7872 7.62601 40.7872 8.28857C40.7872 8.96144 40.3411 9.39433 39.6843 9.39433H36.6337V12.4478C36.6337 13.1075 36.2008 13.5507 35.5411 13.5507Z" fill="white"/>
</svg>
