<svg width="45" height="36" viewBox="0 0 45 36" fill="none" xmlns="http://www.w3.org/2000/svg">
<path d="M10.6195 32.9579C11.2564 32.9579 11.7276 32.6599 12.4844 31.9596L16.782 28.001C15.946 27.3129 15.2126 26.1674 15.2126 23.7927V13.1742C15.2126 8.41696 18.1328 5.53679 22.9024 5.53679H33.7929L33.7805 5.07102C33.512 2.03851 31.491 0.00976562 27.8966 0.00976562H6.83269C3.20546 0.00976562 0.914551 2.12924 0.914551 5.82898V21.0087C0.914551 24.6481 3.17269 26.9148 6.73437 26.9148H9.17366V31.323C9.17366 32.3085 9.71529 32.9579 10.6195 32.9579Z" fill="#002845"/>
<path d="M36.0654 35.1252C36.9821 35.1252 37.5085 34.4884 37.5085 33.4904V29.0945H39.0948C42.6565 29.0945 44.9147 26.8279 44.9147 23.1733V13.5613C44.9147 9.87126 42.6211 7.75452 38.9939 7.75452H23.3362C19.5763 7.75452 17.4304 9.86306 17.4304 13.6202V23.1733C17.4304 26.8552 19.5817 29.0945 23.3362 29.0945H28.6252L34.1977 34.1395C34.9573 34.8246 35.4257 35.1252 36.0654 35.1252Z" fill="#002845"/>
</svg>
