<svg width="40" height="38" viewBox="0 0 40 38" fill="none" xmlns="http://www.w3.org/2000/svg">
<path d="M15.2836 32.8926H24.7135V21.0556C24.7135 20.2899 24.219 19.7923 23.4533 19.7923H16.5632C15.7841 19.7923 15.2836 20.2899 15.2836 21.0556V32.8926ZM8.86947 35.0261H31.0469C33.5247 35.0261 34.9852 33.5954 34.9852 31.1799V13.0197L31.7743 10.8187V30.1982C31.7743 31.237 31.2096 31.8152 30.2007 31.8152H9.7158C8.69344 31.8152 8.12867 31.237 8.12867 30.1982V10.8321L4.91772 13.0197V31.1799C4.91772 33.5954 6.37538 35.0261 8.86947 35.0261ZM0 16.5224C0 17.3684 0.636551 18.0901 1.67496 18.0901C2.18401 18.0901 2.63765 17.8267 3.03787 17.4979L19.3165 3.84012C19.7568 3.45039 20.273 3.45039 20.7162 3.84012L36.9861 17.4979C37.3758 17.8267 37.8295 18.0901 38.3385 18.0901C39.2799 18.0901 40 17.5057 40 16.5627C40 16.0091 39.786 15.581 39.3711 15.2271L22.3129 0.889435C20.9113 -0.296478 19.135 -0.296478 17.72 0.889435L0.642451 15.23C0.21404 15.584 0 16.0658 0 16.5224ZM30.3554 8.58515L34.9852 12.4815V4.57045C34.9852 3.83163 34.5146 3.36094 33.7758 3.36094H31.5678C30.8425 3.36094 30.3554 3.83163 30.3554 4.57045V8.58515Z" fill="#002845"/>
</svg>
