<svg width="35" height="36" viewBox="0 0 35 36" fill="none" xmlns="http://www.w3.org/2000/svg">
<path d="M17.4982 34.9974C27.0851 34.9974 35 27.0717 35 17.4987C35 7.91181 27.0713 0 17.4843 0C7.91438 0 -0.000488281 7.91181 -0.000488281 17.4987C-0.000488281 27.0717 7.92827 34.9974 17.4982 34.9974ZM17.4982 31.5504C9.70056 31.5504 3.4604 25.2963 3.4604 17.4987C3.4604 9.70105 9.68667 3.44701 17.4843 3.44701C25.2819 3.44701 31.553 9.70105 31.553 17.4987C31.553 25.2963 25.2958 31.5504 17.4982 31.5504ZM28.7927 28.6746L28.7327 28.3937C27.6679 25.9065 23.4121 23.3377 17.4982 23.3377C11.6013 23.3377 7.34245 25.9065 6.26674 28.3799L6.20677 28.6746C9.39324 31.6077 14.265 33.2231 17.4982 33.2231C20.7485 33.2231 25.5784 31.6216 28.7927 28.6746ZM17.4982 20.5463C20.786 20.574 23.3331 17.7776 23.3331 14.1445C23.3331 10.7256 20.7659 7.87521 17.4982 7.87521C14.2335 7.87521 11.6494 10.7256 11.6663 14.1445C11.6802 17.7776 14.2274 20.5185 17.4982 20.5463Z" fill="#002845"/>
</svg>
